<?xml version="1.0" encoding="UTF-8"?>
<svg xmlns="http://www.w3.org/2000/svg" xmlns:xlink="http://www.w3.org/1999/xlink" width="150pt" height="43.5pt" viewBox="0 0 150 43.5" version="1.1">
<defs>
<clipPath id="clip1">
  <path d="M 0 0 L 150 0 L 150 43.5 L 0 43.5 Z M 0 0 "/>
</clipPath>
</defs>
<g id="surface0">
<g clip-path="url(#clip1)" clip-rule="nonzero">
<path style=" stroke:none;fill-rule:nonzero;fill:rgb(100%,100%,100%);fill-opacity:1;" d="M 70.796875 11.414063 C 71.382813 11.414063 71.675781 11.714844 71.675781 12.304688 L 71.660156 13.59375 L 71.617188 16.851563 L 71.570313 22.078125 L 71.617188 27.523438 L 71.660156 31.640625 C 71.660156 31.851563 71.601563 32.054688 71.488281 32.25 C 71.367188 32.449219 71.144531 32.546875 70.8125 32.546875 C 70.46875 32.546875 70.234375 32.449219 70.109375 32.242188 C 69.980469 32.039063 69.921875 31.722656 69.921875 31.304688 L 69.933594 30.058594 L 69.980469 22.722656 L 69.980469 20.277344 L 69.671875 20.277344 L 66.859375 20.203125 L 60.882813 20.292969 L 60.898438 24.335938 L 60.964844 32.269531 L 51.386719 32.269531 L 51.476563 19.28125 L 51.449219 15.929688 L 51.417969 12.84375 L 51.386719 11.691406 L 60.964844 11.691406 L 60.949219 12.75 L 60.882813 18.605469 C 61.632813 18.652344 63.117188 18.679688 65.332031 18.679688 C 67.394531 18.679688 68.9375 18.652344 69.980469 18.605469 L 69.933594 14.765625 L 69.890625 12.9375 C 69.890625 12.410156 69.949219 12.019531 70.0625 11.78125 C 70.183594 11.53125 70.421875 11.414063 70.796875 11.414063 Z M 28.917969 11.414063 C 29.503906 11.414063 29.796875 11.714844 29.796875 12.304688 L 29.78125 13.59375 L 29.734375 16.851563 L 29.691406 22.078125 L 29.734375 27.523438 L 29.78125 31.640625 C 29.78125 31.851563 29.71875 32.054688 29.609375 32.25 C 29.488281 32.449219 29.261719 32.546875 28.933594 32.546875 C 28.585938 32.546875 28.355469 32.449219 28.226563 32.242188 C 28.101563 32.039063 28.039063 31.722656 28.039063 31.304688 L 28.054688 30.058594 L 28.101563 22.722656 L 28.101563 20.277344 L 27.792969 20.277344 L 24.980469 20.203125 L 19.003906 20.292969 L 19.019531 24.335938 L 19.085938 32.269531 L 9.507813 32.269531 L 9.597656 19.28125 L 9.566406 15.929688 L 9.539063 12.84375 L 9.507813 11.691406 L 19.085938 11.691406 L 19.070313 12.75 L 19.003906 18.605469 C 19.753906 18.652344 21.238281 18.679688 23.449219 18.679688 C 25.511719 18.679688 27.058594 18.652344 28.101563 18.605469 L 28.054688 14.765625 L 28.011719 12.9375 C 28.011719 12.410156 28.070313 12.019531 28.183594 11.78125 C 28.304688 11.53125 28.542969 11.414063 28.917969 11.414063 Z M 40.820313 11.089844 C 42.46875 11.089844 44.046875 11.457031 45.546875 12.1875 C 45.980469 12.394531 46.398438 12.6875 46.804688 13.0625 C 47.21875 13.4375 47.421875 13.777344 47.421875 14.074219 C 47.421875 14.261719 47.335938 14.4375 47.171875 14.585938 C 47.007813 14.734375 46.835938 14.8125 46.648438 14.8125 C 46.398438 14.8125 46.09375 14.636719 45.710938 14.285156 C 45.214844 13.804688 44.546875 13.40625 43.722656 13.101563 C 42.898438 12.785156 42.109375 12.628906 41.359375 12.628906 C 40.941406 12.628906 40.609375 12.710938 40.371094 12.867188 C 40.128906 13.03125 40.011719 13.226563 40.011719 13.460938 C 40.011719 13.8125 40.191406 14.261719 40.542969 14.804688 C 40.902344 15.34375 41.390625 16.054688 42.003906 16.933594 C 45.179688 20.082031 46.992188 22.136719 47.449219 23.121094 C 48.351563 24.386719 48.800781 25.566406 48.800781 26.660156 C 48.800781 27.597656 48.554688 28.484375 48.042969 29.324219 C 47.539063 30.15625 46.84375 30.839844 45.941406 31.378906 C 44.277344 32.375 42.246094 32.871094 39.851563 32.871094 C 37.632813 32.871094 35.683594 32.300781 34.003906 31.160156 C 32.789063 30.320313 32.171875 29.625 32.171875 29.074219 C 32.171875 28.875 32.253906 28.691406 32.414063 28.527344 C 32.578125 28.371094 32.765625 28.289063 32.984375 28.289063 C 33.246094 28.289063 33.46875 28.421875 33.664063 28.6875 C 34.484375 29.527344 35.390625 30.179688 36.410156 30.636719 C 37.421875 31.101563 38.429688 31.332031 39.425781 31.332031 C 40.371094 31.332031 40.851563 31.085938 40.851563 30.589844 C 40.851563 30.214844 40.65625 29.773438 40.273438 29.25 C 39.898438 28.722656 38.953125 27.652344 37.445313 26.03125 C 35.53125 23.953125 34.257813 22.40625 33.613281 21.402344 C 32.742188 20.039063 32.308594 18.726563 32.308594 17.480469 C 32.308594 15.582031 33.148438 14.039063 34.828125 12.832031 C 36.449219 11.667969 38.441406 11.089844 40.820313 11.089844 Z M 40.820313 11.089844 "/>
<path style=" stroke:none;fill-rule:nonzero;fill:rgb(100%,94.901961%,0%);fill-opacity:1;" d="M 107.402344 24.976563 C 106.875 25.148438 106.035156 25.359375 104.894531 25.605469 C 103.753906 25.855469 103.003906 26.085938 102.652344 26.328125 C 102.121094 26.703125 101.851563 27.1875 101.851563 27.773438 C 101.851563 28.351563 102.066406 28.847656 102.496094 29.265625 C 102.921875 29.6875 103.472656 29.894531 104.136719 29.894531 C 104.878906 29.894531 105.585938 29.65625 106.261719 29.167969 C 106.753906 28.792969 107.085938 28.34375 107.242188 27.804688 C 107.347656 27.453125 107.402344 26.785156 107.402344 25.792969 L 107.402344 24.976563 Z M 130.019531 19.6875 C 129.121094 19.6875 128.378906 20.019531 127.792969 20.671875 C 127.207031 21.324219 126.914063 22.214844 126.929688 23.332031 L 133.082031 23.332031 C 133.050781 22.140625 132.742188 21.242188 132.160156 20.617188 C 131.574219 19.996094 130.859375 19.6875 130.019531 19.6875 Z M 129.773438 16.539063 C 132.082031 16.539063 133.914063 17.304688 135.25 18.832031 C 136.582031 20.355469 137.226563 22.703125 137.167969 25.855469 L 126.855469 25.855469 C 126.886719 27.078125 127.214844 28.027344 127.851563 28.703125 C 128.484375 29.386719 129.277344 29.722656 130.222656 29.722656 C 130.867188 29.722656 131.410156 29.542969 131.851563 29.199219 C 132.292969 28.847656 132.625 28.277344 132.847656 27.496094 L 136.949219 28.1875 C 136.417969 29.6875 135.585938 30.832031 134.453125 31.621094 C 133.3125 32.410156 131.886719 32.796875 130.179688 32.796875 C 127.476563 32.796875 125.476563 31.914063 124.179688 30.144531 C 123.152344 28.734375 122.632813 26.941406 122.632813 24.789063 C 122.632813 22.207031 123.308594 20.191406 124.660156 18.730469 C 126.007813 17.265625 127.710938 16.539063 129.773438 16.539063 Z M 104.894531 16.539063 C 106.734375 16.539063 108.097656 16.757813 109 17.191406 C 109.898438 17.625 110.527344 18.171875 110.894531 18.847656 C 111.261719 19.515625 111.441406 20.746094 111.441406 22.53125 L 111.398438 27.332031 C 111.398438 28.703125 111.464844 29.707031 111.601563 30.359375 C 111.726563 31.007813 111.976563 31.703125 112.335938 32.445313 L 108.261719 32.445313 C 108.160156 32.175781 108.023438 31.769531 107.875 31.230469 C 107.796875 30.984375 107.753906 30.828125 107.722656 30.75 C 107.019531 31.433594 106.269531 31.945313 105.464844 32.289063 C 104.671875 32.625 103.816406 32.796875 102.910156 32.796875 C 101.304688 32.796875 100.042969 32.363281 99.121094 31.492188 C 98.199219 30.625 97.734375 29.527344 97.734375 28.203125 C 97.734375 27.324219 97.941406 26.535156 98.363281 25.847656 C 98.785156 25.15625 99.367188 24.632813 100.125 24.265625 C 100.882813 23.894531 101.976563 23.582031 103.402344 23.304688 C 105.324219 22.945313 106.660156 22.605469 107.402344 22.296875 L 107.402344 21.886719 C 107.402344 21.089844 107.207031 20.527344 106.816406 20.191406 C 106.425781 19.855469 105.691406 19.6875 104.601563 19.6875 C 103.867188 19.6875 103.296875 19.832031 102.894531 20.125 C 102.480469 20.410156 102.152344 20.910156 101.894531 21.640625 L 98.160156 20.964844 C 98.582031 19.457031 99.300781 18.347656 100.328125 17.625 C 101.347656 16.898438 102.878906 16.539063 104.894531 16.539063 Z M 115.5 10.972656 L 119.609375 10.972656 L 119.609375 32.445313 L 115.5 32.445313 L 115.5 10.972656 Z M 86.347656 10.605469 C 89.046875 10.605469 91.074219 11.199219 92.4375 12.375 C 93.804688 13.5625 94.515625 15.136719 94.582031 17.109375 L 90.25 17.304688 C 90.0625 16.195313 89.664063 15.40625 89.054688 14.917969 C 88.441406 14.4375 87.527344 14.199219 86.3125 14.199219 C 85.050781 14.199219 84.0625 14.453125 83.347656 14.972656 C 82.890625 15.300781 82.660156 15.75 82.660156 16.304688 C 82.660156 16.808594 82.875 17.242188 83.304688 17.609375 C 83.851563 18.070313 85.179688 18.546875 87.285156 19.042969 C 89.402344 19.539063 90.960938 20.054688 91.964844 20.589844 C 92.976563 21.121094 93.773438 21.847656 94.34375 22.769531 C 94.914063 23.695313 95.199219 24.832031 95.199219 26.191406 C 95.199219 27.421875 94.859375 28.578125 94.171875 29.648438 C 93.488281 30.722656 92.519531 31.523438 91.277344 32.042969 C 90.023438 32.566406 88.464844 32.828125 86.601563 32.828125 C 83.886719 32.828125 81.804688 32.199219 80.347656 30.945313 C 78.894531 29.695313 78.023438 27.863281 77.738281 25.457031 L 81.953125 25.050781 C 82.207031 26.46875 82.726563 27.503906 83.503906 28.171875 C 84.277344 28.832031 85.328125 29.167969 86.640625 29.167969 C 88.042969 29.167969 89.09375 28.867188 89.796875 28.277344 C 90.511719 27.691406 90.863281 27 90.863281 26.207031 C 90.863281 25.695313 90.714844 25.269531 90.414063 24.910156 C 90.121094 24.554688 89.597656 24.242188 88.851563 23.980469 C 88.351563 23.804688 87.1875 23.492188 85.386719 23.042969 C 83.0625 22.464844 81.429688 21.757813 80.492188 20.917969 C 79.171875 19.734375 78.519531 18.292969 78.519531 16.597656 C 78.519531 15.503906 78.824219 14.484375 79.449219 13.53125 C 80.0625 12.578125 80.957031 11.851563 82.125 11.355469 C 83.296875 10.855469 84.699219 10.605469 86.347656 10.605469 Z M 86.347656 10.605469 "/>
<path style="fill-rule:evenodd;fill:rgb(0%,0%,0%);fill-opacity:1;stroke-width:2;stroke-linecap:round;stroke-linejoin:miter;stroke:rgb(100%,100%,100%);stroke-opacity:1;stroke-miterlimit:5;" d="M -0.00202181 -0.00104167 L 84.36777 0.311458 " transform="matrix(0.75,0,0,0.75,8.907766,10.246875)"/>
<path style="fill-rule:evenodd;fill:rgb(0%,0%,0%);fill-opacity:1;stroke-width:2;stroke-linecap:round;stroke-linejoin:miter;stroke:rgb(100%,100%,100%);stroke-opacity:1;stroke-miterlimit:5;" d="M 12.421875 11.348958 L 53.130208 0.661458 " transform="matrix(0.75,0,0,0.75,0.000000000000005329,1.5)"/>
<path style="fill-rule:evenodd;fill:rgb(0%,0%,0%);fill-opacity:1;stroke-width:2;stroke-linecap:round;stroke-linejoin:miter;stroke:rgb(100%,100%,100%);stroke-opacity:1;stroke-miterlimit:5;" d="M 95.9375 11.979167 L 52.729167 0.697917 " transform="matrix(0.75,0,0,0.75,0,1.5)"/>
</g>
</g>
</svg>
